<svg xmlns="http://www.w3.org/2000/svg" viewBox="0 0 64 64">
  <path d="M19 12L10 13 11 9 19 9zM45 12L54 13 53 9 45 9zM55.5 17.5C53 15 43 12 32 12s-21 3-23.5 5.5-5 13.5-5 26C3.5 50.5 11 54 14 54l4.835-8.058C19.558 44.737 20.86 44 22.265 44h19.47c1.405 0 2.707.737 3.43 1.942L50 54c3 0 10.5-3.5 10.5-10.5C60.5 31 58 20 55.5 17.5zM23 32h-4v4h-4v-4h-4v-4h4v-4h4v4h4V32zM32 24c-1.657 0-3-1.343-3-3s1.343-3 3-3 3 1.343 3 3S33.657 24 32 24zM42 32c-1.105 0-2-.895-2-2 0-1.105.895-2 2-2s2 .895 2 2C44 31.105 43.105 32 42 32zM47 37c-1.105 0-2-.895-2-2 0-1.105.895-2 2-2s2 .895 2 2C49 36.105 48.105 37 47 37zM47 27c-1.105 0-2-.895-2-2 0-1.105.895-2 2-2s2 .895 2 2C49 26.105 48.105 27 47 27zM52 32c-1.105 0-2-.895-2-2 0-1.105.895-2 2-2s2 .895 2 2C54 31.105 53.105 32 52 32z" fill="#FF0000" />
</svg>