<svg xmlns="http://www.w3.org/2000/svg" viewBox="0 0 80 80"><path fill="#fff" d="M72.5,12.26v55.48c0,2.63-2.14,4.76-4.76,4.76H12.26c-2.62,0-4.76-2.13-4.76-4.76V12.26 c0-2.63,2.14-4.76,4.76-4.76h55.48C70.36,7.5,72.5,9.63,72.5,12.26z"/><path fill="#a3b7cc" d="M67.74,7H40H12.26C9.36,7,7,9.36,7,12.26v55.48C7,70.64,9.36,73,12.26,73H40h5v-1h-5H12.26 C9.91,72,8,70.09,8,67.74V12.26C8,9.91,9.91,8,12.26,8H40h27.74C70.09,8,72,9.91,72,12.26V45h1V12.26C73,9.36,70.64,7,67.74,7z"/><path fill="#ecf7ed" d="M49 56L45 45 57 50z"/><path fill="#e1ebf2" d="M72,67.74c0,2.35-1.91,4.26-4.26,4.26H45v1h22.74c2.9,0,5.26-2.36,5.26-5.26V45h-1V67.74z"/><path fill="#94cf9a" d="M40 40l-5.5-5.5c-3.898-4.962-4.987-7.24-5-11-.013-3.74 2-5 3.5-5 4.414 0 7 5.059 7 5.059s2.586-5.059 7-5.059c1.5 0 3.52 1.26 3.5 5 .02 3.76-1.107 6.137-5 11L40 40zM40 40l-5.5 5.5c-3.898 4.962-4.987 7.24-5 11-.013 3.74 2 5 3.5 5 4.414 0 7-5.059 7-5.059s2.586 5.059 7 5.059c1.5 0 3.52-1.26 3.5-5 .02-3.76-1.108-6.137-5-11L40 40z"/><path fill="#bae0bd" d="M40 40.001L34.5 45.5c-4.962 3.898-7.24 4.987-11 5-3.74.013-5-2-5-3.5 0-4.414 5.059-7 5.059-7S18.5 37.414 18.5 33c0-1.5 1.26-3.52 5-3.5 3.76-.02 6.137 1.107 11 5L40 40.001zM40 40l5.5 5.5c4.962 3.898 7.24 4.987 11 5 3.74.013 5-2 5-3.5 0-4.414-5.059-7-5.059-7s5.059-2.586 5.059-7c0-1.5-1.26-3.52-5-3.5-3.76-.02-6.137 1.108-11 5L40 40z"/><path fill="#5e9c76" d="M57.43,40C58.9,39.05,62,36.63,62,33c0-0.91-0.39-1.83-1.08-2.52C60.24,29.8,58.93,29,56.53,29H56.5 c-3.07,0.01-5.17,0.68-8.52,3.02l0.09-0.09c2.27-3.25,2.95-5.4,2.93-8.43c0.01-2.41-0.79-3.73-1.47-4.41C48.84,18.4,47.92,18,47,18 c-3.63,0-6.05,3.1-7,4.57C39.05,21.1,36.63,18,33,18c-0.91,0-1.83,0.39-2.52,1.08c-0.68,0.68-1.49,2-1.48,4.42 c0.01,3.05,0.67,5.15,2.98,8.46C28.74,29.7,26.6,29,23.61,29h-0.16c-2.38,0-3.68,0.8-4.36,1.47C18.4,31.16,18,32.08,18,33 c0,3.63,3.1,6.05,4.57,7C21.1,40.95,18,43.37,18,47c0,0.91,0.39,1.83,1.08,2.52C19.76,50.2,21.07,51,23.47,51h0.03 c3.07-0.01,5.17-0.68,8.52-3.02l-0.09,0.09c-2.27,3.25-2.95,5.4-2.93,8.43c-0.01,2.41,0.79,3.73,1.47,4.41 C31.16,61.6,32.08,62,33,62c3.63,0,6.05-3.1,7-4.57c0.55,0.85,1.58,2.23,3.05,3.25c0.3,0.22,0.63,0.41,0.97,0.58 c0.01-0.37,0.04-0.74,0.07-1.1c-0.33-0.2-0.63-0.42-0.92-0.65c-1.73-1.39-2.71-3.27-2.72-3.3L40,55.34l-0.45,0.87 C39.53,56.26,37.06,61,33,61c-0.65,0-1.32-0.29-1.82-0.79c-0.78-0.79-1.19-2.07-1.18-3.71c-0.02-3.57,1.03-5.87,4.89-10.69 l2.59-3.29l-3.29,2.59c-4.93,3.87-7.13,4.88-10.69,4.89h-0.03c-1.63,0-2.9-0.41-3.68-1.19C19.29,48.31,19,47.65,19,47 c0-4.05,4.74-6.53,4.79-6.56L24.66,40l-0.87-0.45C23.74,39.53,19,37.06,19,33c0-0.65,0.29-1.32,0.79-1.82 c0.78-0.77,2.04-1.18,3.66-1.18h0.15c3.51,0,5.81,1.07,10.59,4.89l3.39,2.71l-2.69-3.41c-3.87-4.93-4.88-7.13-4.89-10.69 c0-1.64,0.41-2.93,1.19-3.71C31.69,19.29,32.35,19,33,19c4.05,0,6.53,4.74,6.56,4.79L40,24.66l0.45-0.87 C40.47,23.74,42.94,19,47,19c0.65,0,1.32,0.29,1.82,0.79c0.78,0.79,1.19,2.07,1.18,3.71c0.02,3.57-1.03,5.87-4.89,10.69l-2.59,3.29 l3.29-2.59c4.93-3.87,7.13-4.88,10.69-4.89h0.03c1.63,0,2.9,0.41,3.68,1.19C60.71,31.69,61,32.35,61,33c0,4.05-4.74,6.53-4.79,6.56 L55.34,40l0.87,0.45c0.03,0.01,1.91,0.99,3.3,2.72c0.24,0.29,0.45,0.59,0.65,0.92c0.36-0.03,0.73-0.06,1.1-0.07 c-0.17-0.34-0.36-0.67-0.58-0.97C59.66,41.58,58.28,40.55,57.43,40z"/><path fill="#f78f8f" d="M62 44.5A17.5 17.5 0 1 0 62 79.5A17.5 17.5 0 1 0 62 44.5Z"/><path fill="#c74343" d="M62,45c9.4,0,17,7.6,17,17s-7.6,17-17,17s-17-7.6-17-17S52.6,45,62,45 M62,44c-9.9,0-18,8.1-18,18 s8.1,18,18,18s18-8.1,18-18S71.9,44,62,44L62,44z"/><path fill="#bae0bd" d="M60.68,43.05c-0.39,0.02-0.78,0.06-1.17,0.12c0.24,0.29,0.45,0.59,0.65,0.92 c0.36-0.03,0.73-0.06,1.1-0.07C61.09,43.68,60.9,43.35,60.68,43.05z"/><path fill="#94cf9a" d="M43.17,59.51c-0.06,0.39-0.1,0.78-0.12,1.17c0.3,0.22,0.63,0.41,0.97,0.58 c0.01-0.37,0.04-0.74,0.07-1.1C43.76,59.96,43.46,59.74,43.17,59.51z"/><path fill="#fff" d="M52.101 60H71.9V64H52.101z" transform="rotate(-45.001 62 62.001)"/><path fill="#fff" d="M60 52.101H64V71.9H60z" transform="rotate(-45.001 62 62.001)"/></svg>