<svg xmlns="http://www.w3.org/2000/svg" width="512" height="512" viewBox="0 0 512 512"><path fill="#FEBF10" d="M245.9 281.9c-5.1-2.1-10.1-4.6-14.8-7.6-3.7 2.1-6.3 6.7-8.6 10-2.9 4.4-5.9 8.7-8.8 13-1.8 2.7-3.6 5.3-5.5 8 0 0 .1 0 .1.1 9.2 7.8 15.1 18.4 22.2 27.9 5.7 7.6 12.6 15.1 22 17.2-.8-2.3 0-4.4 1.5-5.9 1.2-9.9 3-19.8 4.6-29.7 1.5-9.2 2-18.6 5.7-27.2C258.1 286.3 251.9 284.4 245.9 281.9zM273.2 66.9c0-.6-.9-1.7-2.4-2.8-1.9-1.4-4-2.4-6.1-3.3-5.6-2.4-11.5-4.2-17.4-5.7-4.1-1.1-9.1-3-13.3-3.1-4.9-.2-11.6-1.5-16.5.5 1.1.5 2 1.6 2.4 3.3 2.5 11.3 12.9 18.8 20.9 26.3 8.2 7.8 16 16.4 17.4 28.1.1.6.1 1.2 0 1.7 1.7-.4 3.4-.8 5.2-1.1 3.6-.7 7.2-1.1 10.8-1.4.1-12.6 2.2-25 3.9-37.5C275.6 71.6 273.4 70 273.2 66.9zM176.4 133.9c-6.4-1.9-12.9-3.9-19.1-6.2-.5.1-1.1.1-1.6.1-8 7.1-16.2 14.2-22.3 22.9-3.9 5.5-7.5 12.3-8.9 18.9-1.1 5.3-.8 10.6-.5 15.9 20.6-8.2 43.8-5.5 64.9-12.2 2.8-.9 5 .3 6.2 2.2 0-.3.1-.7.2-1.1.7-2.6 1.5-5.1 2.4-7.6.8-2.8 1.7-5.6 2.6-8.4.4-1.3 1.2-2.3 2.2-3 1.4-2.8 2.9-5.5 4.6-8.1C196.7 143 187.2 137.1 176.4 133.9zM312.9 311.7c-.9-6.1-4.5-15.9-3.8-23.7-10.6 2.1-21.4 2.6-32.2 1.6-.1 2.2-1.5 4.3-3.4 5.2-2.9 8.2-3.2 17.3-4.6 25.7-1 5.9-2 11.9-2.9 17.8.8.4 1.6 1.1 2.2 2.1 5 8.8 18.9 11.9 28 13.5 7.5 1.2 19 2.7 26.8-1C315.9 340.8 314.8 325.2 312.9 311.7zM247.2 110.9c-1.3-10.9-11.7-18.7-19.1-25.7-3.9-3.6-7.9-7.4-11.3-11.7-1.5.4-3.2.2-4.7-.9 1.2.9.4.4-.8.6-1.5.2-3 .7-4.4 1.2-4.1 1.4-8 3.1-11.9 5-6.1 3-11.8 6.4-17.9 9.5-5.2 2.7-10.3 6-15 9.5-2.9 2.2-5.8 4.4-8.1 7.2-.2.3-.7.9-1 1.4 2.1 2.1 1.5 5-.3 6.9.6.3 1.2.5 1.8.8 2.9-1.1 6.6-.2 7.4 3 7 2.6 14.2 4.6 21.4 6.9 10.1 3.2 19 8.9 28.7 12.9.6.2 1.1.5 1.5.9 2-2.3 4.1-4.5 6.3-6.6 8.6-7.8 18.4-13.6 29.1-17.4C248.1 113.6 247.4 112.5 247.2 110.9zM417.2 125.4c-2-6.6-4.5-13.4-8.7-19.1-1.2-1.7-3.3-3.7-4.3-4.2-.8-.4-.8-.4-1.4 0-.8.5-1.5.8-2.3.9-.1.1-.3.2-.4.4-1.6 1.6-3.2 3.3-4.7 5-3.4 3.8-6.6 7.6-9.8 11.5-7.7 9.1-17.7 15.3-26.4 23.2 3.2 3.4 6.1 7 8.9 10.9 5.4 7.6 9.7 15.9 12.7 24.5.1 0 .2-.1.2-.1 9.7-3.3 19.2-6.8 28-12 1.7-1 3.5-2.1 5.3-3.1 0-1.5.7-3.1 2.4-4.2 1.3-.8 2.2-2 2.7-3.8.8-2.8 1.2-5.7 1.2-8.6C420.4 139.3 419.2 132.2 417.2 125.4zM331.1 74.5c-2.3-4.3-3.7-8.8-5.3-13.4-1.4-4-3.1-8.3-7.1-10.4-7-3.8-17.8-4.9-25.8-1.9 1 2.2-.1 5-2.1 6.6-1.5 17.9-5.6 35.6-5.7 53.5 10 .3 19.8 2.1 29.2 5.2.4-2.1 1.5-4.2 2.4-6 2.6-5.3 5.5-10.5 8.3-15.7 2.8-5.2 5.7-10.5 8.3-15.8C332.5 76.4 331.7 75.6 331.1 74.5z"/><path fill="#D6E5E5" d="M374.8,201.4c-3.1-36.7-33.5-69.2-68.7-78.5c-20.2-5.3-42.8-4-61.7,5.2c-17.8,8.7-30.2,24.4-36.6,42.8c-3.1,10.9-5.4,22.2-5.3,33.4c0.2,25.1,12.8,47.7,34.4,60.7c18.6,11.2,40.8,15.8,62.3,13.3C338.1,274,378.4,244.1,374.8,201.4z M311.3,247.6c-0.7-0.1-1.3-0.3-2-0.3c-1.6-0.2-3.2-0.3-4.8-0.3c-5.2-0.1-10.3,0-15.5,0.2c-8.3,0.4-16.6,0.8-24.8,1.8c-7.1,0.9-7.9-10.1-0.8-11c8-1,16.1-1.5,24.1-1.8c-1.5-2.5-1.3-5.9,0.9-7.5c0.5-21.1,2.8-42.2,1.7-63.2c-8.2,6.4-16.9,12.9-20.4,22.4c-2.4,6.6-12.3,1.7-9.9-4.9c5.3-14.3,20.4-22.1,30.8-32.2c3.4-3.3,9.1-1.7,9.6,3.2c2.9,26.6-0.9,53.3-1,80c0,0.6-0.1,1.2-0.2,1.8c7.5-0.4,18.2-0.7,21,5.8C322.2,247.2,315.2,250.6,311.3,247.6z"/><path fill="#FEBF10" d="M369.3 74.9c-3.1-4.4-6.1-7.2-11.2-9.1-2-.7-6-2.1-8.9-1.5 0 3.6-1.4 7.1-2.8 10.5-2.4 5.6-5.2 10.9-8 16.3-3.1 5.8-6.3 11.6-9.3 17.4-1.1 2.1-2.2 4.2-3.2 6.4-.2.5-.4 1-.6 1.5 0 .7-.1 1.4-.4 2 9.6 4.3 18.5 10 26.5 17 5.8-5.3 12.2-10 18.3-15 4-3.3 7-7.1 10.3-11 .5-.5.9-1.1 1.4-1.6C381.1 96.3 375.6 84.1 369.3 74.9zM441.9 248.7c-.9-.2-1.7-.4-2.6-.5-2.2-.3-4.3-.6-6.5-.9-3.9-.4-7.9-.7-11.8-1.3-12.4-1.7-25-2.6-36.9-6.7-6.7-2.3-1.7-12.1 4.9-9.9 7.6 2.6 15.8 3.3 23.7 4.3 3.5.4 7 1 10.5 1.5.1-.4.2-.8.3-1.2 5.1-13.4 16.3-24.8 18.8-39 1.1-6 .9-12.3-.2-18.3-.7-3.6-1.7-9.3-5.5-10.5-.7.5-1.6.8-2.7.8-8.2.4-15.9 6.6-22.7 10.6-8.4 4.8-17.7 8-26.9 11.1-.3.1-.6.2-.9.2 5.1 23.4.5 48.1-17 67.4-3.2 3.5-6.7 6.8-10.3 9.8 2.8 1.3 5.4 3.5 7.9 5.2 4.5 3.1 9 6.2 13.3 9.5 5.1 4 10.4 7.8 15.4 11.9.5-.6 1.2-1 2-1.4 10.5-4.6 21.7-7.9 30.9-15.1 5.2-4.1 10.7-8.3 13.7-14.4 2-4.1 3.1-8.3 3.5-12.8-.2-.1-.3-.2-.5-.3C442.5 248.8 442.3 248.8 441.9 248.7zM398.2 311.5c.8 1.4-.9-.7-1.3-1.1-.8-.7-1.7-1.4-2.5-2.1-1.5-1.2-2.8-2.6-4.3-3.7-6.2-4.7-12.2-9.6-18.3-14.4-4.2-3.3-8.5-6.4-12.9-9.4-1.7-1.2-3.5-2.4-5.2-3.5-.7-.4-4.1-2-2-1.5-2.1-.5-3.4-1.9-3.9-3.5-7.9 5.2-16.4 9.2-25.4 12.2-.2.9-.7 1.7-1.5 2.6-.1.1-.1.1-.2.2-.1.4-.2.9-.2 1.3-.1.9 0 1.8.1 2.7.2 2.7.6 5.4 1.1 8.1 1 4.7 1.9 9.3 2.6 14.1.9 6.6 1.6 13.9 3.3 20.8.5-.2 1.1-.3 1.8-.3 13.5 0 27.5-1.7 40.6-5.2 8.9-2.4 24.7-6.8 29.2-16.6C398.7 312 398.4 311.7 398.2 311.5z"/><path fill="#EF4823" d="M417.5 455.3c-2.9-6.3-4.9-12.8-7.1-19.3-4.6-14.1-9.2-28.3-13.6-42.5-3.8-12.2-8.1-24.4-11.1-36.9-.9-3.8-1.7-7.6-2.7-11.4-.4-1.7-.8-3.5-1.4-5.2-.2-.6-.3-1.2-.6-1.8 0 0 0-.1 0-.1-.2-.3-.4-.7-.5-1.1-1 .3-2.1.7-3.1 1-14.9 4.4-30.7 6.7-46.3 6.9.2.3.3.7.5 1 .2.2.3.3.5.5.6.6 1 1.4 1.3 2.1 3.3 1.3 5.5 5.3 2.3 8.6-10.1 10.2-27.4 9.9-40.5 7.7-.1 0-.1 0-.2 0 2.5 11 6.6 21.7 9.2 32.7 3.1 13.5 6.4 26.9 9.2 40.4 2.8 13.3 6.4 26.4 9.3 39.7 1.7 8 2 16.2 3.7 24.1 6.8-9.1 13.3-18.5 19.8-27.8 5.3-7.7 8.9-17.5 17.5-22.2 9.9-5.3 21.4.5 30.7 4.5 9 3.9 18.1 8.4 27.8 10C421 462.5 419.2 458.9 417.5 455.3zM295.6 409.4c-.9-3.8-1.7-7.7-2.4-11.6-2.2-12.1-7.3-23.5-9.7-35.6-7-2-14-4.9-19.2-9.5-.1.6-.1 1.2-.2 1.8-.1 1.1-.5 2-1.1 2.7 0 2.5-1.6 4.8-4.9 4.8-14.3-.3-25.1-8-33.8-18.8-4.7-5.9-8.8-12.5-13.3-18.6-3.3 2.6-4.7 7.3-5.9 11.1-1.5 4.6-3 9.1-4.9 13.6-5.4 12.6-10.7 25.2-15.8 37.8-7.9 19.6-14.5 40.2-25.3 58.4 11.3-.8 22.5-2.9 33.4-5.9 7.3-2 14.4-4.3 21.6-6.7 5.5-1.9 11.5-5.5 17.5-3.9 10.2 2.7 16.8 12.3 22.7 20.4 4.3 6 7 14.7 12 20.8 1.9-4.9 4.1-9.8 6.3-14.6 2.9-6.3 5.2-13 8.7-18.9 2.6-4.4 5.1-8.9 7.4-13.4 1.1-2.2 2.2-4.4 3.1-6.6.2-.6.4-.9.5-1.4 0-.1 0-.2.1-.2 0 0 0 0 0 0C291.6 411.9 293.4 410 295.6 409.4z"/><path fill="#FEBF10" d="M193.8 183.1c-.4.2-.8.4-1.3.6-11.1 3.6-22.8 4.6-34.3 5.9-4.1.5-8.3.9-12.5 1.5.4 1.2.4 2.5-.1 3.9-5.9 15.4-12.4 31.3-11.2 48 .3 3.9.8 16.5 4.8 21.3 4.5-6.8 13.2-12.3 18.9-16.2 10.8-7.4 23.6-14.3 32.4-24.1.8-.9 1.8-1.5 2.8-1.7C190.8 209.3 191.4 196 193.8 183.1zM197.3 235.6c-.3-.7-.5-1.4-.8-2.1-8.2 8.3-18.9 14.6-28.5 21.1-.6.4-1.2.8-1.9 1.3 1.1 1.8 1.2 4.2-.4 6.3-1.4 1.8-1.1 5.9-.9 8.2.2 4.1.8 8.2 1.6 12.2 1.1 5.9 2.2 12.7 4.9 18.1 2.4 4.8 5.2 10.2 8.2 15.1 1.4 2.3 2.9 4.7 4.6 6.8 7-12.5 15.7-23.9 23.5-35.9 3.9-6 8.1-13.8 13.9-18.9C211.1 259.1 202.4 248.3 197.3 235.6z"/><path d="M447.8,239.3c-3.5-2.2-8.5-2.8-13.1-3c6.7-15.6,18.8-28.6,19.5-46.5c0.4-11.3-1.2-33.8-16.4-34.7c-1.4-0.1-2.6,0.3-3.6,0.9c-0.3,0-0.6,0-0.9,0c-0.8,0-1.6,0.1-2.4,0.2c3-11.6-1-27.2-3.9-36.4c-3.1-10-12.6-32.3-26.1-28.8c-4-0.1-7,3-9.7,5.7c0,0-0.1,0.1-0.1,0.1c-2.5-12-9.1-24.2-16.4-32.8c-8.6-10.1-28.9-16.1-37.6-3.5c-0.8-2.4-1.5-4.8-2.5-7.1c-2.5-5.8-6.6-10.2-12.2-13.2c-11.2-6-29.3-5.6-39.8,1.7c-2.5,1.7-2.8,4.4-1.9,6.5c-0.3,0.7-0.5,1.5-0.5,2.4c-0.1,2-0.3,4-0.4,6c-6.8-6.7-19.8-9.8-27.2-11.8c-5.7-1.6-12.3-4-18.3-4.1c-8.4-0.1-18.7-2.2-25.7,3.9c-3.7,3.2-1.8,8.8,1.5,10.1c-0.7,1.2-1,2.6-0.7,4.3c0.2,1,0.5,1.9,0.8,2.9c-5.5,0.5-11.4,3.3-15.9,5.4c-8.2,3.7-16,8.4-24,12.5c-8,4.1-40.2,23.4-25.3,34.6c0.2,0.1,0.4,0.3,0.6,0.4c-1.6,2-2,5.2,0,7.2c-8.4,7.6-16.6,15.3-23,24.8c-4.1,6.2-7.1,13.3-8.9,20.5c-2,7.9-0.6,16.3-0.5,24.3c0,3.6,2.9,5.2,5.7,4.9c1.6,1,3.7,1.3,5.8,0.3c3.1-1.6,6.4-2.8,9.7-3.7c-6.6,17.3-12.5,34.5-10.8,53.3c0.9,9.7,3.6,25.4,13.6,29.5c2.3,3.5,8.2,4,9.6-0.1c1.9-1.3,2.5-3.8,2-5.9c1.4-1.9,3.4-3.6,5-5.1c-0.6,5.7,0.5,11.9,1.4,17.1c1.4,8.1,3,16.7,6.7,24.1c3.4,6.8,18.7,40.4,29.9,26.9c1.1-1.3,1.4-2.7,1.3-4c2.3-4.3,4.8-8.4,7.5-12.5c0.7,0.3,1.5,0.5,2.3,0.4c-5.9,5.6-7.7,14.5-10.4,22c-4.5,12.8-10.7,25.2-15.9,37.8c-9.7,23.7-16.9,50-32.1,70.9c-2.9,4-0.5,9.1,4.6,9.1c13.5-0.1,26.7-2,39.9-5.1c6.6-1.6,13.2-3.5,19.7-5.6c3.6-1.1,7.2-2.4,10.8-3.6c2.8-1,5.4-2.5,8.4-2.9c4.6-0.6,8.5,4.8,10.9,7.8c3.2,3.9,6.4,7.9,9,12.2c5.4,9,9,18.9,18.4,24.6c3.4,2,6.9-0.8,7.8-3.9c2.6-8,6.3-15.7,9.8-23.3c2.7-5.8,4.9-11.7,8-17.2c2.6-4.6,5.2-9.2,7.5-13.9c0.1-0.1,0.1-0.2,0.2-0.3c1.1,4.3,2.1,8.7,3,13c2.7,13.1,6.2,26,9.1,39c2.8,12.5,2.2,25.7,7.8,37.5c1.6,3.4,6.6,5.4,9.3,1.8c7.8-10.2,15.3-20.7,22.6-31.2c3.1-4.4,6.1-8.8,8.8-13.5c2.2-3.7,4.4-7.8,7.9-10.4c3.8-2.8,8.4-1,12.4,0.4c5.7,2,11.2,4.6,16.8,7c10.5,4.6,21.2,8.3,32.8,8.5c2.8,0.1,5.5-3.1,5.1-5.9c-1-6.7-3.8-12.8-6.6-18.9c-3.1-6.8-5.4-13.7-7.7-20.8c-5.2-15.9-10.2-31.8-15.2-47.7c-3.7-11.9-7.6-23.7-10.4-35.9c-0.8-3.5-1.6-11.3-4.5-15.7c10.9-5.4,20.2-13.8,20.5-27c0.1-4.3-4-5.7-7.2-4.5c-0.6-0.5-1.2-1-1.9-1.5c3.3-1.4,6.6-2.8,10-4.1c8.8-3.4,16.4-8.2,23.9-14c12.4-9.6,18-22.6,18.2-38C454.2,240.1,450.8,238.6,447.8,239.3z M385.5,119.7c3.3-3.8,6.5-7.7,9.8-11.5c1.5-1.7,3.1-3.4,4.7-5c0.2-0.2,0.3-0.3,0.4-0.4c0.7-0.1,1.5-0.4,2.3-0.9c0.6-0.4,0.7-0.4,1.4,0c1,0.5,3.1,2.6,4.3,4.2c4.1,5.6,6.6,12.4,8.7,19.1c2.1,6.9,3.3,14,3.4,21.2c0,2.9-0.4,5.8-1.2,8.6c-0.5,1.7-1.5,3-2.7,3.8c-1.7,1.1-2.4,2.6-2.4,4.2c-1.8,1.1-3.5,2.1-5.3,3.1c-8.8,5.2-18.3,8.7-28,12c-0.1,0-0.2,0.1-0.2,0.1c-3-8.6-7.3-16.9-12.7-24.5c-2.7-3.8-5.7-7.5-8.9-10.9C367.8,135,377.9,128.8,385.5,119.7z M338.3,91.1c2.8-5.3,5.6-10.7,8-16.3c1.4-3.4,2.9-6.9,2.8-10.5c2.9-0.6,6.9,0.7,8.9,1.5c5.1,1.9,8.1,4.7,11.2,9.1c6.4,9.2,11.9,21.4,12,32.8c-0.5,0.5-0.9,1.1-1.4,1.6c-3.3,3.9-6.4,7.7-10.3,11c-6.1,5-12.5,9.7-18.3,15c-8-7-16.9-12.7-26.5-17c0.3-0.6,0.4-1.3,0.4-2c0.2-0.5,0.4-1,0.6-1.5c1-2.2,2.1-4.3,3.2-6.4C332.1,102.6,335.2,96.9,338.3,91.1z M290.8,55.5c2.1-1.6,3.1-4.5,2.1-6.6c8-3.1,18.8-1.9,25.8,1.9c4,2.1,5.7,6.4,7.1,10.4c1.6,4.6,3,9,5.3,13.4c0.6,1.1,1.3,1.8,2.2,2.2c-2.6,5.4-5.4,10.6-8.3,15.8c-2.8,5.2-5.7,10.4-8.3,15.7c-0.9,1.8-2,3.9-2.4,6c-9.4-3.1-19.2-4.9-29.2-5.2C285.2,91.1,289.2,73.4,290.8,55.5z M306.1,122.9c35.1,9.3,65.6,41.8,68.7,78.5c3.6,42.7-36.7,72.6-75.5,77c-21.6,2.4-43.7-2.1-62.3-13.3c-21.6-13-34.2-35.6-34.4-60.7c-0.1-11.3,2.2-22.5,5.3-33.4c6.4-18.4,18.8-34.1,36.6-42.8C263.3,118.9,285.9,117.6,306.1,122.9z M312.9,311.7c1.9,13.6,3,29.2,10.2,41.2c-7.9,3.7-19.4,2.2-26.8,1c-9.1-1.5-23-4.7-28-13.5c-0.6-1-1.4-1.7-2.2-2.1c0.9-5.9,1.9-11.9,2.9-17.8c1.4-8.4,1.7-17.6,4.6-25.7c1.8-0.9,3.2-3,3.4-5.2c10.7,1,21.6,0.5,32.2-1.6C308.4,295.7,312,305.5,312.9,311.7z M252.6,350.4c-9.4-2.1-16.3-9.5-22-17.2c-7.1-9.5-13.1-20.2-22.2-27.9c0,0-0.1,0-0.1-0.1c1.8-2.6,3.7-5.3,5.5-8c2.9-4.3,5.9-8.6,8.8-13c2.2-3.3,4.9-7.9,8.6-10c4.7,3,9.7,5.5,14.8,7.6c6,2.5,12.3,4.4,18.6,5.7c-3.7,8.6-4.3,18-5.7,27.2c-1.6,9.9-3.4,19.8-4.6,29.7C252.6,346,251.7,348.1,252.6,350.4z M234,51.9c4.3,0.1,9.2,2,13.3,3.1c5.9,1.5,11.8,3.3,17.4,5.7c2.1,0.9,4.3,2,6.1,3.3c1.5,1.1,2.3,2.2,2.4,2.8c0.2,3.1,2.4,4.7,4.8,4.9c-1.7,12.5-3.7,24.9-3.9,37.5c-3.6,0.3-7.2,0.7-10.8,1.4c-1.8,0.3-3.5,0.7-5.2,1.1c0.1-0.5,0.1-1.1,0-1.7c-1.4-11.7-9.2-20.3-17.4-28.1c-7.9-7.6-18.3-15-20.9-26.3c-0.4-1.7-1.3-2.7-2.4-3.3C222.4,50.4,229.1,51.8,234,51.9z M153,107c0.3-0.5,0.8-1.1,1-1.4c2.3-2.8,5.2-5,8.1-7.2c4.7-3.5,9.7-6.9,15-9.5c6-3.1,11.8-6.5,17.9-9.5c3.9-1.9,7.8-3.6,11.9-5c1.4-0.5,2.9-0.9,4.4-1.2c1.3-0.2,2,0.2,0.8-0.6c1.6,1.1,3.2,1.3,4.7,0.9c3.4,4.3,7.4,8.1,11.3,11.7c7.5,7,17.8,14.8,19.1,25.7c0.2,1.6,0.9,2.7,1.8,3.6c-10.7,3.8-20.5,9.6-29.1,17.4c-2.3,2.1-4.4,4.3-6.3,6.6c-0.4-0.3-0.9-0.6-1.5-0.9c-9.7-4-18.7-9.8-28.7-12.9c-7.2-2.3-14.4-4.3-21.4-6.9c-0.8-3.2-4.5-4.1-7.4-3c-0.6-0.3-1.2-0.5-1.8-0.8C154.5,112,155.1,109.1,153,107z M124,185.5c-0.3-5.3-0.5-10.6,0.5-15.9c1.3-6.7,5-13.4,8.9-18.9c6.1-8.7,14.3-15.8,22.3-22.9c0.5,0,1.1,0,1.6-0.1c6.3,2.4,12.7,4.3,19.1,6.2c10.8,3.2,20.3,9.1,30.6,13.4c-1.7,2.6-3.2,5.3-4.6,8.1c-1,0.7-1.8,1.6-2.2,3c-0.9,2.8-1.8,5.6-2.6,8.4c-0.9,2.5-1.7,5-2.4,7.6c-0.1,0.4-0.2,0.7-0.2,1.1c-1.2-1.9-3.5-3.1-6.2-2.2C167.8,180,144.6,177.3,124,185.5z M158.2,248c-5.7,3.9-14.4,9.4-18.9,16.2c-4-4.7-4.6-17.4-4.8-21.3c-1.2-16.8,5.2-32.6,11.2-48c0.5-1.4,0.5-2.7,0.1-3.9c4.2-0.6,8.4-1,12.5-1.5c11.5-1.3,23.2-2.3,34.3-5.9c0.5-0.2,0.9-0.4,1.3-0.6c-2.4,13-3.1,26.2-0.5,39.1c-1,0.2-1.9,0.8-2.8,1.7C181.7,233.6,169,240.5,158.2,248z M184.2,322.4c-1.7-2.1-3.2-4.5-4.6-6.8c-3-4.8-5.9-10.3-8.2-15.1c-2.7-5.4-3.8-12.2-4.9-18.1c-0.8-4-1.3-8.1-1.6-12.2c-0.1-2.3-0.4-6.4,0.9-8.2c1.6-2.1,1.4-4.5,0.4-6.3c0.6-0.4,1.2-0.8,1.9-1.3c9.6-6.5,20.2-12.8,28.5-21.1c0.3,0.7,0.5,1.4,0.8,2.1c5.1,12.7,13.8,23.5,24.4,32c-5.8,5.1-10,12.9-13.9,18.9C200,298.6,191.2,310,184.2,322.4z M292.2,414.9C292.2,414.9,292.2,414.9,292.2,414.9c0,0.1,0,0.2,0,0.3c-0.1,0.6-0.3,0.9-0.5,1.4c-0.9,2.3-2,4.4-3.1,6.6c-2.3,4.6-4.8,9-7.4,13.4c-3.5,5.9-5.8,12.7-8.7,18.9c-2.2,4.8-4.4,9.6-6.3,14.6c-5-6-7.7-14.8-12-20.8c-5.9-8.1-12.5-17.8-22.7-20.4c-6-1.6-12,2-17.5,3.9c-7.1,2.5-14.3,4.7-21.6,6.7c-11,3-22.1,5.1-33.4,5.9c10.8-18.2,17.4-38.8,25.3-58.4c5.1-12.7,10.5-25.3,15.8-37.8c1.9-4.5,3.4-9,4.9-13.6c1.2-3.8,2.7-8.5,5.9-11.1c4.6,6.1,8.6,12.7,13.3,18.6c8.7,10.8,19.5,18.5,33.8,18.8c3.3,0.1,4.8-2.3,4.9-4.8c0.6-0.7,1-1.6,1.1-2.7c0-0.6,0.1-1.2,0.2-1.8c5.2,4.6,12.2,7.5,19.2,9.5c2.4,12.1,7.5,23.5,9.7,35.6c0.7,3.9,1.5,7.7,2.4,11.6C293.4,410,291.6,411.9,292.2,414.9z M396.9,393.5c4.4,14.2,9,28.3,13.6,42.5c2.1,6.6,4.2,13.1,7.1,19.3c1.6,3.6,3.5,7.2,4.9,11c-9.7-1.7-18.8-6.1-27.8-10c-9.3-4.1-20.8-9.9-30.7-4.5c-8.7,4.7-12.2,14.5-17.5,22.2c-6.5,9.4-13,18.7-19.8,27.8c-1.7-7.9-2-16.1-3.7-24.1c-2.9-13.3-6.5-26.4-9.3-39.7c-2.8-13.5-6.1-26.9-9.2-40.4c-2.5-11-6.6-21.7-9.2-32.7c0.1,0,0.1,0,0.2,0c13.1,2.2,30.4,2.5,40.5-7.7c3.2-3.2,1-7.3-2.3-8.6c-0.3-0.8-0.7-1.5-1.3-2.1c-0.2-0.2-0.3-0.3-0.5-0.5c-0.2-0.3-0.3-0.7-0.5-1c15.5-0.2,31.4-2.5,46.3-6.9c1-0.3,2.1-0.6,3.1-1c0.1,0.4,0.3,0.7,0.5,1.1c0,0,0,0.1,0,0.1c0.2,0.6,0.4,1.2,0.6,1.8c0.5,1.7,0.9,3.5,1.4,5.2c0.9,3.8,1.8,7.6,2.7,11.4C388.8,369.1,393.1,381.3,396.9,393.5z M369.8,328.8c-13.1,3.5-27,5.1-40.6,5.2c-0.7,0-1.2,0.1-1.8,0.3c-1.7-6.9-2.4-14.3-3.3-20.8c-0.7-4.8-1.6-9.4-2.6-14.1c-0.5-2.7-0.9-5.3-1.1-8.1c-0.1-0.9-0.1-1.8-0.1-2.7c0-0.4,0.1-0.9,0.2-1.3c0.1-0.1,0.1-0.1,0.2-0.2c0.9-0.8,1.3-1.7,1.5-2.6c8.9-2.9,17.5-7,25.4-12.2c0.5,1.6,1.8,3,3.9,3.5c-2.1-0.5,1.3,1,2,1.5c1.8,1.1,3.5,2.3,5.2,3.5c4.4,3,8.7,6.1,12.9,9.4c6.1,4.8,12.1,9.7,18.3,14.4c1.5,1.1,2.9,2.5,4.3,3.7c0.8,0.7,1.7,1.4,2.5,2.1c0.5,0.4,2.1,2.5,1.3,1.1c0.2,0.3,0.5,0.5,0.8,0.7C394.5,322,378.7,326.5,369.8,328.8z M439.5,261.8c-3,6.1-8.5,10.3-13.7,14.4c-9.1,7.1-20.4,10.4-30.9,15.1c-0.8,0.4-1.5,0.8-2,1.4c-5-4.1-10.4-8-15.4-11.9c-4.3-3.3-8.8-6.5-13.3-9.5c-2.4-1.7-5.1-3.8-7.9-5.2c3.6-3,7.1-6.2,10.3-9.8c17.5-19.2,22.1-43.9,17-67.4c0.3-0.1,0.6-0.1,0.9-0.2c9.2-3.1,18.5-6.3,26.9-11.1c6.8-3.9,14.6-10.2,22.7-10.6c1.1,0,2-0.4,2.7-0.8c3.8,1.2,4.9,7,5.5,10.5c1.1,6,1.2,12.3,0.2,18.3c-2.5,14.3-13.7,25.7-18.8,39c-0.2,0.4-0.3,0.8-0.3,1.2c-3.5-0.5-7-1-10.5-1.5c-8-1-16.1-1.6-23.7-4.3c-6.6-2.3-11.6,7.6-4.9,9.9c11.9,4.1,24.5,5,36.9,6.7c3.9,0.5,7.8,0.8,11.8,1.3c2.2,0.2,4.3,0.5,6.5,0.9c0.9,0.1,1.7,0.3,2.6,0.5c0.4,0.1,0.5,0.1,0.6,0.1c0.2,0.1,0.3,0.2,0.5,0.3C442.6,253.5,441.5,257.8,439.5,261.8z"/><path d="M319.9,241.6c-2.8-6.6-13.5-6.2-21-5.8c0.2-0.5,0.2-1.1,0.2-1.8c0.1-26.7,3.9-53.4,1-80c-0.5-4.9-6.2-6.5-9.6-3.2C280.2,161,265,168.7,259.8,183c-2.4,6.6,7.4,11.5,9.9,4.9c3.5-9.5,12.2-16,20.4-22.4c1,21.1-1.3,42.1-1.7,63.2c-2.2,1.5-2.4,5-0.9,7.5c-8.1,0.3-16.1,0.8-24.1,1.8c-7,0.8-6.2,11.8,0.8,11c8.2-1,16.6-1.4,24.8-1.8c5.2-0.2,10.3-0.3,15.5-0.2c1.6,0,3.2,0.1,4.8,0.3c0.7,0.1,1.4,0.2,2,0.3C315.2,250.6,322.2,247.2,319.9,241.6z"/></svg>